<svg width="73" height="22" viewBox="0 0 73 22" fill="none" xmlns="http://www.w3.org/2000/svg">
<path d="M15.1758 18.1768V22H0.74707C0.90332 20.5547 1.37207 19.1875 2.15332 17.8984C2.93457 16.5996 4.47754 14.8809 6.78223 12.7422C8.6377 11.0137 9.77539 9.8418 10.1953 9.22656C10.7617 8.37695 11.0449 7.53711 11.0449 6.70703C11.0449 5.78906 10.7959 5.08594 10.2979 4.59766C9.80957 4.09961 9.13086 3.85059 8.26172 3.85059C7.40234 3.85059 6.71875 4.10938 6.21094 4.62695C5.70312 5.14453 5.41016 6.00391 5.33203 7.20508L1.23047 6.79492C1.47461 4.5293 2.24121 2.90332 3.53027 1.91699C4.81934 0.930664 6.43066 0.4375 8.36426 0.4375C10.4834 0.4375 12.1484 1.00879 13.3594 2.15137C14.5703 3.29395 15.1758 4.71484 15.1758 6.41406C15.1758 7.38086 15 8.30371 14.6484 9.18262C14.3066 10.0518 13.7598 10.9648 13.0078 11.9219C12.5098 12.5566 11.6113 13.4697 10.3125 14.6611C9.01367 15.8525 8.18848 16.6436 7.83691 17.0342C7.49512 17.4248 7.2168 17.8057 7.00195 18.1768H15.1758ZM21.9287 22L16.8018 0.525391H21.2402L24.4775 15.2764L28.4033 0.525391H33.5596L37.3242 15.5254L40.6201 0.525391H44.9854L39.7705 22H35.1709L30.8936 5.94531L26.6309 22H21.9287ZM47.0801 22V0.525391H51.416V22H47.0801ZM55.6055 22V0.525391H59.8242L68.6133 14.8662V0.525391H72.6416V22H68.291L59.6338 7.99609V22H55.6055Z" fill="#D13980"/>
</svg>
