<svg xmlns="http://www.w3.org/2000/svg" aria-hidden="true" style="position:absolute;width:0;height:0;overflow:hidden">
  <defs>
    <symbol id="icon-chevron-bottom" viewBox="0 0 32 32">
      <path d="M16 18.895 6.276 9.171 4.39 11.057 16 22.666l11.609-11.609-1.886-1.886-9.724 9.724z"/>
    </symbol>

    <symbol id="icon-chevron-top" viewBox="0 0 32 32">
      <path d="m16 12.552-9.724 9.724L4.39 20.39 16 8.781 27.609 20.39l-1.886 1.886-9.724-9.724z"/>
    </symbol>

    <symbol id="icon-chevron-right" viewBox="0 0 32 32">
      <path d="M19.448 16 9.724 6.276 11.61 4.39 23.22 16 11.61 27.609l-1.886-1.886 9.724-9.724z"/>
    </symbol>

    <symbol id="icon-chevron-left" viewBox="0 0 32 32">
      <path d="m12.552 16 9.724 9.724-1.886 1.886L8.781 16.001 20.39 4.391l1.886 1.886-9.724 9.724z"/>
    </symbol>

    <symbol id="icon-arrow-right" viewBox="0 0 32 32">
      <path d="M23.448 17.333H4v-2.667h19.448l-8.391-8.391 1.886-1.886 11.609 11.61-11.609 11.609-1.886-1.886 8.391-8.391z"/>
    </symbol>

    <symbol id="icon-arrow-left" viewBox="0 0 32 32">
      <path d="m8.552 17.333 8.391 8.391-1.886 1.886L3.448 16.001l11.609-11.61 1.886 1.886-8.391 8.391H28v2.667H8.552z"/>
    </symbol>

    <symbol id="icon-alert-circle" viewBox="0 0 32 32">
      <path d="M16 1.333c8.1 0 14.667 6.566 14.667 14.667S24.1 30.667 16 30.667 1.333 24.1 1.333 16 7.899 1.333 16 1.333zM16 4C9.373 4 4 9.373 4 16s5.373 12 12 12 12-5.373 12-12S22.627 4 16 4zm0 17.331a1.334 1.334 0 1 1 .003 2.665A1.334 1.334 0 0 1 16 21.33zm1.339-2.667h-2.668V7.997h2.668v10.667z"/>
    </symbol>

    <symbol id="icon-arrow-reply" viewBox="0 0 32 32">
      <path d="M7.219 13.333h7.448c10.492 0 14.667 4.342 14.667 14.667h-2.667c0-8.875-3.005-12-12-12H7.219l5.724 5.724-1.886 1.886-8.943-8.943 8.943-8.943 1.886 1.886-5.724 5.724z"/>
    </symbol>

    <symbol id="icon-bar-chart" viewBox="0 0 32 32">
      <path d="M4 4h24a2.667 2.667 0 0 1 2.667 2.667v18.667A2.667 2.667 0 0 1 28 28.001H4a2.667 2.667 0 0 1-2.667-2.667V6.667A2.667 2.667 0 0 1 4 4zm0 2.667v18.667h24V6.667H4zm5.333 16H12v-8H9.333v8zm8 0h-2.667V9.334h2.667v13.333zm2.667 0h2.667v-9.333H20v9.333z"/>
    </symbol>

    <symbol id="icon-calendar-dates" viewBox="0 0 32 32">
      <path d="M10.667 8V6.667h10.667V8h2.667V6.667h2.667v4H5.335v-4h2.667V8h2.667zm16 5.333v13.333H5.334V13.333h21.333zM21.333 4H10.666V2.667H7.999V4H5.332a2.667 2.667 0 0 0-2.667 2.667v20a2.667 2.667 0 0 0 2.667 2.667h21.333a2.667 2.667 0 0 0 2.667-2.667v-20A2.667 2.667 0 0 0 26.665 4h-2.667V2.667h-2.667V4zm-12 14.667H12V16H9.333v2.667zm5.334 0V16h2.667v2.667h-2.667zm5.333 0h2.667V16H20v2.667zM9.333 21.333H12V24H9.333v-2.667zm8 2.667v-2.667h-2.667V24h2.667z"/>
    </symbol>

    <symbol id="icon-check-mark" viewBox="0 0 32 32">
      <path d="M12.943 19.057 25.334 6.666l1.886 1.886-14.276 14.276-7.609-7.609 1.886-1.886 5.724 5.724z"/>
    </symbol>

    <symbol id="icon-comment-plus" viewBox="0 0 32 32">
      <path d="M26.667 2.667a2.667 2.667 0 0 1 2.667 2.667v16a2.667 2.667 0 0 1-2.667 2.667H16.116L8 29.074v-5.073H5.333a2.667 2.667 0 0 1-2.667-2.667v-16a2.667 2.667 0 0 1 2.667-2.667h21.333zM5.333 21.333h5.333v2.927l4.685-2.927h11.315v-16H5.333v16zm12-9.333h4v2.667h-4v4h-2.667v-4h-4V12h4V8h2.667v4z"/>
    </symbol>

    <symbol id="icon-comment-text" viewBox="0 0 32 32">
      <path d="M8 29.072 16.116 24h10.551a2.667 2.667 0 0 0 2.667-2.667v-16a2.667 2.667 0 0 0-2.667-2.667H5.334a2.667 2.667 0 0 0-2.667 2.667v16A2.667 2.667 0 0 0 5.334 24h2.667v5.072zm7.351-7.739-4.684 2.928v-2.928H5.334v-16h21.333v16H15.351zm-6.018-4v-2.667h9.333v2.667H9.333zm0-8V12h12V9.333h-12z"/>
    </symbol>

    <symbol id="icon-copy" viewBox="0 0 32 32">
      <path d="M13.333 2.667h13.333c1.536 0 2.667 1.13 2.667 2.667v13.333c0 1.536-1.13 2.667-2.667 2.667h-5.333v5.333c0 1.536-1.13 2.667-2.667 2.667H5.333c-1.536 0-2.667-1.13-2.667-2.667V13.334c0-1.536 1.13-2.667 2.667-2.667h5.333V5.334c0-1.536 1.13-2.667 2.667-2.667zm-2.666 10.666H5.334v13.333h13.333v-5.333h-5.333c-1.536 0-2.667-1.13-2.667-2.667v-5.333zm2.666-8v13.333h13.333V5.333H13.333z"/>
    </symbol>

    <symbol id="icon-eye" viewBox="0 0 32 32">
      <path d="M16 5.333c3.637 0 7.114 1.907 10.355 5.042a30.953 30.953 0 0 1 2.986 3.353c.531.689.909 1.231 1.115 1.554l.459.718-.459.718c-.207.323-.584.865-1.115 1.554a31.262 31.262 0 0 1-2.986 3.353c-3.241 3.134-6.718 5.041-10.355 5.041s-7.114-1.907-10.355-5.041a30.953 30.953 0 0 1-2.986-3.353 23.187 23.187 0 0 1-1.115-1.554L1.085 16l.459-.718c.207-.323.584-.865 1.115-1.554a31.262 31.262 0 0 1 2.986-3.353C8.886 7.241 12.363 5.333 16 5.333zm11.23 10.023a28.389 28.389 0 0 0-2.728-3.064C21.711 9.593 18.807 8 16.001 8s-5.71 1.593-8.501 4.292A28.282 28.282 0 0 0 4.29 16a28.389 28.389 0 0 0 3.21 3.708C10.291 22.407 13.195 24 16.001 24s5.71-1.593 8.501-4.292A28.282 28.282 0 0 0 27.712 16a27.504 27.504 0 0 0-.482-.644zM10.667 16a5.333 5.333 0 1 0 10.667 0 5.333 5.333 0 0 0-10.667 0zm8 0a2.667 2.667 0 1 1-5.334 0 2.667 2.667 0 0 1 5.334 0z"/>
    </symbol>

    <symbol id="icon-eye-no" viewBox="0 0 32 32">
      <path d="m3.61 1.724 26.667 26.667-1.886 1.886-5.716-5.717c-2.148 1.348-4.38 2.107-6.674 2.107-3.637 0-7.114-1.907-10.355-5.042a30.953 30.953 0 0 1-2.986-3.353 23.187 23.187 0 0 1-1.115-1.554L1.086 16l.459-.718c.207-.323.584-.865 1.115-1.554a31.262 31.262 0 0 1 2.986-3.353c.494-.478.994-.927 1.499-1.346l-5.42-5.42 1.886-1.886zm17.116 20.888-2.017-2.017a5.333 5.333 0 0 1-7.304-7.304L9.04 10.926c-.517.417-1.031.873-1.541 1.367a28.282 28.282 0 0 0-3.21 3.708 28.389 28.389 0 0 0 3.21 3.708c2.791 2.699 5.695 4.292 8.501 4.292 1.558 0 3.145-.49 4.726-1.388zm-7.302-7.303a2.667 2.667 0 0 0 3.268 3.268l-3.267-3.267zm13.373 5.879-1.886-1.886a28.806 28.806 0 0 0 2.8-3.302 28.389 28.389 0 0 0-3.21-3.708C21.71 9.593 18.806 8 16 8c-.696 0-1.399.098-2.104.287l-2.109-2.109c1.377-.549 2.783-.844 4.213-.844 3.637 0 7.114 1.907 10.355 5.042a30.953 30.953 0 0 1 2.986 3.353c.531.689.909 1.231 1.115 1.554l.459.718-.459.718c-.207.323-.584.865-1.115 1.554a31.427 31.427 0 0 1-2.544 2.915z"/>
    </symbol>

    <symbol id="icon-fieled" viewBox="0 0 32 32">
      <path d="M28.242 4c1.339 0 2.425 1.194 2.425 2.667v18.667c0 1.473-1.086 2.667-2.425 2.667H3.758c-1.339 0-2.424-1.194-2.424-2.667V6.667C1.334 5.194 2.42 4 3.758 4h24.484zM4 25.333h24V6.666H4v18.667zm16-6.666H6.667V16H20v2.667zm5.333-5.334H6.666v-2.667h18.667v2.667z"/>
    </symbol>

    <symbol id="icon-floppy" viewBox="0 0 32 32">
      <path d="M5.333 2.667h19.23l4.77 4.902v19.098a2.667 2.667 0 0 1-2.667 2.667H5.333a2.667 2.667 0 0 1-2.667-2.667V5.334a2.667 2.667 0 0 1 2.667-2.667zm18.104 2.666h-.77v8H9.334v-8h-4v21.333h2.667V15.999h16v10.667h2.667V8.652l-3.23-3.319zM12 10.667h8V5.334h-8v5.333zm-1.333 8v8h10.667v-8H10.667zm8-12v2.667H16V6.667h2.667z"/>
    </symbol>

    <symbol id="icon-folder-opened" viewBox="0 0 32 32">
      <path d="M25.333 6.667h-9.331c.053 0 .037-.021-.081-.164-.029-.035-.064-.077-.105-.129l-.256-.328a29.476 29.476 0 0 0-.162-.208C14.443 4.633 13.493 4 11.999 4h-8a2.667 2.667 0 0 0-2.667 2.667v18.667a2.667 2.667 0 0 0 2.667 2.667h21.333a2.667 2.667 0 0 0 2.661-2.496l2.64-11.881.032-.289a2.667 2.667 0 0 0-2.667-2.667V9.335a2.667 2.667 0 0 0-2.667-2.667zm0 2.666v1.333H6.666c-1.555 0-2.253.829-2.628 2.347l-.039.175V6.666h8c.512 0 .809.198 1.309.828l.117.15.315.404c.671.831 1.294 1.279 2.252 1.285h9.341zm0 16H4.032l2.602-11.711a5.16 5.16 0 0 1 .08-.289h21.252l-2.602 11.711-.032.289z"/>
    </symbol>

    <symbol id="icon-full" viewBox="0 0 32 32">
      <path d="M28.242 4c1.339 0 2.425 1.194 2.425 2.667v18.667c0 1.473-1.086 2.667-2.425 2.667H3.758c-1.339 0-2.424-1.194-2.424-2.667V6.667C1.334 5.194 2.42 4 3.758 4h24.484zM4 25.333h24V6.666H4v18.667z"/>
    </symbol>
    <symbol id="icon-grid" viewBox="0 0 32 32">
      <path d="M26.667 2.667a2.667 2.667 0 0 1 2.667 2.667v21.333a2.667 2.667 0 0 1-2.667 2.667H5.334a2.667 2.667 0 0 1-2.667-2.667V5.334a2.667 2.667 0 0 1 2.667-2.667h21.333zm-21.334 24h9.333v-9.333H5.333v9.333zm12 0h9.333v-9.333h-9.333v9.333zm0-12h9.333V5.334h-9.333v9.333zm-2.666-9.334H5.334v9.333h9.333V5.333z"/>
    </symbol>

    <symbol id="icon-grid-col-2" viewBox="0 0 32 32">
      <path d="M26.667 2.667a2.667 2.667 0 0 1 2.667 2.667v21.333a2.667 2.667 0 0 1-2.667 2.667H5.334a2.667 2.667 0 0 1-2.667-2.667V5.334a2.667 2.667 0 0 1 2.667-2.667h21.333zm-9.334 24h9.333V5.334h-9.333v21.333zm-12 0h9.333V5.334H5.333v21.333z"/>
    </symbol>

    <symbol id="icon-image" viewBox="0 0 32 32">
      <path d="M26.667 2.667a2.667 2.667 0 0 1 2.667 2.667v21.333a2.667 2.667 0 0 1-2.667 2.667H5.334a2.667 2.667 0 0 1-2.667-2.667V5.334a2.667 2.667 0 0 1 2.667-2.667h21.333zM5.333 24.552v2.115h12.781l-7.448-7.448-5.333 5.333zM17.219 22l4.667 4.667h4.781v-8.781L24 15.219 17.219 22zM5.333 20.781l5.333-5.333 4.667 4.667L24 11.448l2.667 2.667V5.334H5.334v15.448zm9.334-14.114a4 4 0 1 1 0 8 4 4 0 0 1 0-8zm0 2.666a1.333 1.333 0 1 0 0 2.667 1.333 1.333 0 0 0 0-2.667z"/>
    </symbol>

    <symbol id="icon-link" viewBox="0 0 32 32">
      <path d="m11.286 15.057-3.771 3.771a4 4 0 0 0 5.657 5.657l3.771-3.771 1.886 1.886-3.771 3.771a6.667 6.667 0 0 1-9.428-9.428l3.771-3.771 1.886 1.886zm5.657-9.428a6.667 6.667 0 0 1 9.428 9.428L22.6 18.828l-1.886-1.886 3.771-3.771a4 4 0 0 0-5.657-5.657l-3.771 3.771-1.886-1.886 3.771-3.771zm4.714 6.6-9.428 9.428-1.886-1.886 9.428-9.428 1.886 1.886z"/>
    </symbol>

    <symbol id="icon-list" viewBox="0 0 32 32">
      <path d="M2.667 8a2.667 2.667 0 1 0 5.334 0 2.667 2.667 0 0 0-5.334 0zm8-1.333h18.667v2.667H10.667V6.667zm18.666 8H10.666v2.667h18.667v-2.667zM10.667 25.333h18.667v-2.667H10.667v2.667zm-8-1.333a2.667 2.667 0 1 0 5.334 0 2.667 2.667 0 0 0-5.334 0zm2.666-5.333a2.667 2.667 0 1 1 0-5.334 2.667 2.667 0 0 1 0 5.334z"/>
    </symbol>

    <symbol id="icon-menu" viewBox="0 0 32 32">
      <path d="M29.333 9.333V6.666H2.666v2.667h26.667zm0 5.334v2.667H2.666v-2.667h26.667zm0 8v2.667H2.666v-2.667h26.667z"/>
    </symbol>

    <symbol id="icon-more-horizontal" viewBox="0 0 32 32">
      <path d="M6.667 18.667a2.667 2.667 0 1 1 0-5.334 2.667 2.667 0 0 1 0 5.334zm9.333 0a2.667 2.667 0 1 1 0-5.334 2.667 2.667 0 0 1 0 5.334zM22.667 16a2.667 2.667 0 1 0 5.334 0 2.667 2.667 0 0 0-5.334 0z"/>
    </symbol>

    <symbol id="icon-more-vertical" viewBox="0 0 32 32">
      <path d="M13.333 6.667a2.667 2.667 0 1 0 5.334 0 2.667 2.667 0 0 0-5.334 0zm2.667 12a2.667 2.667 0 1 1 0-5.334 2.667 2.667 0 0 1 0 5.334zM16 28a2.667 2.667 0 1 1 0-5.334A2.667 2.667 0 0 1 16 28z"/>
    </symbol>

    <symbol id="icon-pencil-create" viewBox="0 0 32 32">
      <path d="M21.917 2.667c.873 0 1.71.349 2.321.965l4.135 4.135a3.28 3.28 0 0 1 0 4.642L13.278 27.5c-.931 1.074-2.251 1.734-3.764 1.838H2.668v-1.333l.004-5.62c.114-1.406.767-2.713 1.764-3.592L19.595 3.635a3.278 3.278 0 0 1 2.323-.966zM9.419 26.673c.712-.05 1.375-.382 1.908-.991L21.41 15.599l-5.006-5.006L6.262 20.732c-.54.478-.874 1.146-.928 1.758v4.18l4.085.003zm8.87-17.965 5.006 5.006 3.192-3.192a.616.616 0 0 0 0-.87l-4.138-4.138a.61.61 0 0 0-.864 0l-3.196 3.195z"/>
    </symbol>

    <symbol id="icon-pencil-edit" viewBox="0 0 32 32">
      <path d="M29.333 26.667a2.667 2.667 0 0 1-2.667 2.667H5.333a2.667 2.667 0 0 1-2.667-2.667V5.334a2.667 2.667 0 0 1 2.667-2.667h9.333v2.667H5.333v21.333h21.333v-9.333h2.667v9.333zM25.571 3.631l2.801 2.801a3.28 3.28 0 0 1 0 4.642L17.277 22.165c-.931 1.074-2.251 1.734-3.764 1.838H8V22.67l.004-4.287c.114-1.406.767-2.713 1.764-3.592L20.927 3.633a3.278 3.278 0 0 1 4.644-.001zM13.419 21.34c.712-.05 1.375-.382 1.908-.991l8.083-8.082-3.672-3.673-8.142 8.139c-.54.478-.874 1.146-.928 1.758v2.847l2.752.003zm8.204-14.632 3.672 3.672 1.192-1.192a.616.616 0 0 0 0-.87l-2.805-2.805a.61.61 0 0 0-.864 0l-1.196 1.195z"/>
    </symbol>

    <symbol id="icon-plus" viewBox="0 0 32 32">
      <path d="M17.333 14.667h12v2.667h-12v12h-2.667v-12h-12v-2.667h12v-12h2.667v12z"/>
    </symbol>

    <symbol id="icon-question" viewBox="0 0 32 32">
      <path d="M16 29.333c-7.364 0-13.333-5.97-13.333-13.333S8.637 2.667 16 2.667c7.364 0 13.333 5.97 13.333 13.333 0 2.299-.584 4.516-1.678 6.479l.471 5.647-5.647-.471A13.274 13.274 0 0 1 16 29.333zm5.487-4.184.369-.222 3.352.279-.279-3.352.222-.369a10.609 10.609 0 0 0 1.517-5.487c0-5.891-4.776-10.667-10.667-10.667S5.334 10.107 5.334 15.998s4.776 10.667 10.667 10.667c1.962 0 3.843-.529 5.487-1.517zM16 22.664a1.333 1.333 0 1 0 .001-2.667A1.333 1.333 0 0 0 16 22.664zm-1.333-3.997h2.667v-1.333c0 .003.006-.004.021-.019a2.12 2.12 0 0 1 .273-.253c.134-.106.175-.133.512-.347a4 4 0 1 0-6.14-3.38h2.667a1.333 1.333 0 1 1 2.045 1.128c-.432.274-.503.321-.742.51-.793.629-1.303 1.379-1.303 2.362v1.333z"/>
    </symbol>

    <symbol id="icon-review" viewBox="0 0 32 32">
      <path d="M26.667 2.667a2.667 2.667 0 0 1 2.667 2.667v16a2.667 2.667 0 0 1-2.667 2.667H16.116L8 29.074v-5.073H5.333a2.667 2.667 0 0 1-2.667-2.667v-16a2.667 2.667 0 0 1 2.667-2.667h21.333zM5.333 21.333h5.333v2.927l4.685-2.927h11.315v-16H5.333v16zM18.06 10.824l4.607.669-3.333 3.249.786 4.587L16 17.164l-4.12 2.165.786-4.587-3.333-3.249 4.607-.669L16 6.65l2.06 4.174z"/>
    </symbol>

    <symbol id="icon-share-arrow-right" viewBox="0 0 32 32">
      <path d="M10.39 14.667h14.114l-4.391-4.391 1.886-1.886 7.609 7.609-7.609 7.609-1.886-1.886 4.391-4.391H10.39v-2.667zM5.057 4h12v2.667h-12v18.667h12v2.667h-12a2.667 2.667 0 0 1-2.667-2.667V6.667A2.667 2.667 0 0 1 5.057 4z"/>
    </symbol>

    <symbol id="icon-share-arrow-top" viewBox="0 0 32 32">
      <path d="M17.333 21.334V7.22l4.391 4.391 1.886-1.886-7.609-7.609-7.609 7.609 1.886 1.886 4.391-4.391v14.114h2.667zM28 26.667v-12h-2.667v12H6.666v-12H3.999v12a2.667 2.667 0 0 0 2.667 2.667h18.667A2.667 2.667 0 0 0 28 26.667z"/>
    </symbol>

    <symbol id="icon-side-right" viewBox="0 0 32 32">
      <path d="M28.242 4c1.339 0 2.425 1.194 2.425 2.667v18.667c0 1.473-1.086 2.667-2.425 2.667H3.758c-1.339 0-2.424-1.194-2.424-2.667V6.667C1.334 5.194 2.42 4 3.758 4h24.484zM13.333 25.333H28V6.666H13.333v18.667zm-9.333 0h6.667V6.666H4v18.667z"/>
    </symbol>

    <symbol id="icon-table" viewBox="0 0 32 32">
      <path d="M12 5.333h16A2.667 2.667 0 0 1 30.667 8v17.333A2.667 2.667 0 0 1 28 28H4a2.667 2.667 0 0 1-2.667-2.667V8A2.667 2.667 0 0 1 4 5.333h8zM9.333 8H4v4h5.333V8zM12 12V8h16v4H12zm-2.667 2.667H4v4h5.333v-4zm2.667 4v-4h16v4H12zm-2.667 2.666H4v4h5.333v-4zm2.667 4v-4h16v4H12z"/>
    </symbol>

    <symbol id="icon-thumbs-up" viewBox="0 0 32 32">
      <path d="M29.333 15.999c0-2.243-1.507-4-4-4h-4.097l.037-.101c.037-.1.141-.376.243-.643l.001-.001.213-.563c.253-.68.439-1.229.588-1.772.226-.821.349-1.56.349-2.253 0-1.963-1.211-3.182-3.002-3.703-.808-.235-1.511-.297-2.331-.297h-.639l-.4.499c-.452.563-1.34 1.578-2.364 2.748-1.889 2.159-4.24 4.845-5.169 6.198a2.65 2.65 0 0 0-.76-.11H5.335a2.667 2.667 0 0 0-2.667 2.667v12a2.667 2.667 0 0 0 2.667 2.667h2.667c.916 0 1.724-.462 2.205-1.166.405.262.856.48 1.346.655a8.981 8.981 0 0 0 3.162.508l9.287.001c3.673 0 5.333-5.409 5.333-13.333zM12.449 26.312c-1.18-.422-1.783-1.11-1.783-2.313v-9.333c0-.32.059-.604.189-.907.233-.544 2.347-2.956 4.351-5.242 1.034-1.18 2.039-2.326 2.74-3.165.335.025.651.077.972.17.764.222 1.081.542 1.081 1.143 0 .422-.085.936-.253 1.545-.125.455-.288.936-.516 1.549l-.199.528v.001l-.259.685c-.173.469-.288.814-.366 1.128-.332 1.333.001 2.565 1.594 2.565h5.333c.922 0 1.333.48 1.333 1.333 0 6.388-1.313 10.667-2.667 10.667l-9.383.001a6.39 6.39 0 0 1-2.168-.354zm-7.116.355v-12H8v12H5.333z"/>
    </symbol>

    <symbol id="icon-trash" viewBox="0 0 32 32">
      <path d="M12 1.333A2.667 2.667 0 0 0 9.333 4v1.333h-4A2.667 2.667 0 0 0 2.666 8v2.667a2.667 2.667 0 0 0 2.667 2.667h.106L6.67 28.111c-.005 1.362 1.189 2.556 2.662 2.556h13.333A2.667 2.667 0 0 0 25.332 28l1.227-14.667h.107a2.667 2.667 0 0 0 2.667-2.667V7.999a2.667 2.667 0 0 0-2.667-2.667h-4V3.999a2.667 2.667 0 0 0-2.667-2.667h-8zM5.333 8h21.333v2.667H5.333V8zm2.782 5.333h15.769l-1.213 14.556-.005.111H9.333L8.115 13.333zM20 4v1.333h-8V4h8z"/>
    </symbol>

    <symbol id="icon-user" viewBox="0 0 32 32">
      <path d="M16 30.667C7.9 30.667 1.333 24.1 1.333 16S7.899 1.333 16 1.333c8.1 0 14.667 6.566 14.667 14.667S24.1 30.667 16 30.667zm9.866-7.834A11.948 11.948 0 0 0 28 16c0-6.627-5.373-12-12-12S4 9.373 4 16c0 2.539.788 4.894 2.134 6.833C7.635 20.851 11.161 20 16 20s8.365.851 9.866 2.833zm-1.913 2.153c-.39-1.403-3.194-2.32-7.953-2.32s-7.563.917-7.953 2.32C10.164 26.861 12.949 28 16 28s5.836-1.138 7.953-3.014zM16 20c-2.986 0-5.333-2.097-5.333-6.667C10.667 10.341 12.772 8 16 8c3.219 0 5.333 2.562 5.333 5.6 0 4.373-2.376 6.4-5.333 6.4zm-2.667-6.667c0 3.026 1.091 4 2.667 4 1.57 0 2.667-.935 2.667-3.733 0-1.666-1.046-2.933-2.667-2.933-1.688 0-2.667 1.088-2.667 2.667z"/>
    </symbol>

    <symbol id="icon-verified" viewBox="0 0 32 32">
      <path d="M16 30.667C7.9 30.667 1.333 24.1 1.333 16S7.899 1.333 16 1.333c8.1 0 14.667 6.566 14.667 14.667S24.1 30.667 16 30.667zM16 28c6.627 0 12-5.373 12-12S22.627 4 16 4 4 9.373 4 16s5.373 12 12 12zm4.391-16.943-7.057 7.057-3.057-3.057-1.886 1.886 4.943 4.943 8.943-8.943-1.886-1.886z"/>
    </symbol>

    <symbol id="icon-video" viewBox="0 0 32 32">
      <path d="M20 6.667a2.667 2.667 0 0 1 2.667 2.667v1.842l8-4v17.648l-8-4v1.842A2.667 2.667 0 0 1 20 25.333H4a2.667 2.667 0 0 1-2.667-2.667V9.333A2.667 2.667 0 0 1 4 6.666h16zm-16 16h16V9.334H4v13.333zm18.667-8.509v3.685L28 20.51v-9.018l-5.333 2.667z"/>
    </symbol>

    <symbol id="icon-star" viewBox="0 0 32 32">
      <path d="M16 0l5.173 8.881 10.044 2.175-6.848 7.664 1.035 10.225-9.405-4.144-9.405 4.144 1.035-10.225-6.848-7.664 10.044-2.175 5.172-8.881z"></path>
    </symbol>

    <symbol id="icon-quiz" viewBox="0 0 32 32">
      <path d="M29.292 10.667h-11.917c-0.365 0-0.714 0.14-0.972 0.391s-0.403 0.589-0.403 0.943c0 0.354 0.145 0.693 0.403 0.943s0.608 0.391 0.972 0.391h11.917c0.365 0 0.714-0.14 0.972-0.391s0.403-0.589 0.403-0.943-0.145-0.693-0.403-0.943c-0.258-0.25-0.608-0.391-0.972-0.391z"></path>
      <path d="M29.226 2.667h-9.12c-0.382 0-0.748 0.14-1.018 0.391s-0.422 0.589-0.422 0.943c0 0.354 0.152 0.693 0.422 0.943s0.636 0.391 1.018 0.391h9.12c0.382 0 0.748-0.14 1.018-0.391s0.422-0.589 0.422-0.943-0.152-0.693-0.422-0.943c-0.27-0.25-0.636-0.391-1.018-0.391z"></path>
      <path d="M14.581 18.667h-11.828c-0.376 0-0.737 0.14-1.004 0.391s-0.416 0.589-0.416 0.943c0 0.354 0.15 0.693 0.416 0.943s0.627 0.39 1.004 0.39h11.828c0.376 0 0.737-0.14 1.004-0.39s0.416-0.589 0.416-0.943c0-0.354-0.15-0.693-0.416-0.943s-0.627-0.391-1.004-0.391z"></path>
      <path d="M14.581 29.334c0.376 0 0.737-0.14 1.004-0.39s0.416-0.589 0.416-0.943-0.15-0.693-0.416-0.943c-0.266-0.25-0.627-0.391-1.004-0.391h-11.828c-0.376 0-0.737 0.14-1.004 0.391s-0.416 0.589-0.416 0.943 0.15 0.693 0.416 0.943c0.266 0.25 0.627 0.39 1.004 0.39h11.828z"></path>
      <path d="M20.218 28.664c0.118 0.183 0.275 0.337 0.46 0.452s0.394 0.186 0.611 0.209c0.217 0.023 0.436-0.002 0.641-0.075s0.392-0.19 0.546-0.344l2.855-2.854 2.855 2.849c0.151 0.151 0.334 0.268 0.535 0.341s0.416 0.101 0.629 0.081c0.213-0.019 0.42-0.085 0.604-0.194s0.343-0.256 0.464-0.432c0.191-0.301 0.271-0.66 0.226-1.014s-0.213-0.681-0.474-0.924l-2.777-2.762 2.816-2.81c0.246-0.235 0.404-0.547 0.446-0.884s-0.033-0.679-0.213-0.967c-0.118-0.183-0.275-0.337-0.46-0.452s-0.394-0.186-0.611-0.209c-0.217-0.023-0.436 0.002-0.641 0.075s-0.392 0.19-0.546 0.344l-2.855 2.849-2.855-2.849c-0.151-0.151-0.334-0.268-0.535-0.341s-0.416-0.101-0.629-0.081-0.42 0.086-0.604 0.194c-0.185 0.108-0.343 0.256-0.464 0.432-0.191 0.301-0.271 0.66-0.226 1.014s0.213 0.681 0.474 0.925l2.782 2.762-2.796 2.81c-0.251 0.232-0.414 0.544-0.461 0.882s0.025 0.682 0.204 0.974z"></path>
      <path d="M1.732 9.488l2.612 2.959c0.502 0.568 1.182 0.887 1.891 0.887s1.39-0.319 1.891-0.887l6.069-6.874c0.146-0.154 0.262-0.339 0.343-0.545s0.125-0.428 0.128-0.653c0.004-0.225-0.033-0.449-0.108-0.658s-0.185-0.399-0.326-0.558c-0.141-0.159-0.308-0.285-0.493-0.369s-0.382-0.126-0.581-0.122c-0.199 0.004-0.395 0.053-0.577 0.145s-0.345 0.224-0.481 0.389l-5.867 6.645-2.41-2.73c-0.281-0.296-0.652-0.458-1.036-0.45s-0.75 0.184-1.021 0.491c-0.271 0.307-0.427 0.722-0.434 1.157s0.136 0.855 0.397 1.174z"></path>
    </symbol>

  <symbol id="icon-close" viewBox="0 0 32 32">
      <path d="M15.999 14.114l8.485-8.485 1.886 1.886-8.485 8.485 8.485 8.485-1.886 1.886-8.485-8.485-8.485 8.485-1.886-1.886 8.485-8.485-8.485-8.485 1.886-1.886 8.485 8.485z"></path>
  </symbol>

  <symbol id="icon-table-view" viewBox="0 0 26 28">
    <path d="M8 21.5v-3c0-0.281-0.219-0.5-0.5-0.5h-5c-0.281 0-0.5 0.219-0.5 0.5v3c0 0.281 0.219 0.5 0.5 0.5h5c0.281 0 0.5-0.219 0.5-0.5zM8 15.5v-3c0-0.281-0.219-0.5-0.5-0.5h-5c-0.281 0-0.5 0.219-0.5 0.5v3c0 0.281 0.219 0.5 0.5 0.5h5c0.281 0 0.5-0.219 0.5-0.5zM16 21.5v-3c0-0.281-0.219-0.5-0.5-0.5h-5c-0.281 0-0.5 0.219-0.5 0.5v3c0 0.281 0.219 0.5 0.5 0.5h5c0.281 0 0.5-0.219 0.5-0.5zM8 9.5v-3c0-0.281-0.219-0.5-0.5-0.5h-5c-0.281 0-0.5 0.219-0.5 0.5v3c0 0.281 0.219 0.5 0.5 0.5h5c0.281 0 0.5-0.219 0.5-0.5zM16 15.5v-3c0-0.281-0.219-0.5-0.5-0.5h-5c-0.281 0-0.5 0.219-0.5 0.5v3c0 0.281 0.219 0.5 0.5 0.5h5c0.281 0 0.5-0.219 0.5-0.5zM24 21.5v-3c0-0.281-0.219-0.5-0.5-0.5h-5c-0.281 0-0.5 0.219-0.5 0.5v3c0 0.281 0.219 0.5 0.5 0.5h5c0.281 0 0.5-0.219 0.5-0.5zM16 9.5v-3c0-0.281-0.219-0.5-0.5-0.5h-5c-0.281 0-0.5 0.219-0.5 0.5v3c0 0.281 0.219 0.5 0.5 0.5h5c0.281 0 0.5-0.219 0.5-0.5zM24 15.5v-3c0-0.281-0.219-0.5-0.5-0.5h-5c-0.281 0-0.5 0.219-0.5 0.5v3c0 0.281 0.219 0.5 0.5 0.5h5c0.281 0 0.5-0.219 0.5-0.5zM24 9.5v-3c0-0.281-0.219-0.5-0.5-0.5h-5c-0.281 0-0.5 0.219-0.5 0.5v3c0 0.281 0.219 0.5 0.5 0.5h5c0.281 0 0.5-0.219 0.5-0.5zM26 4.5v17c0 1.375-1.125 2.5-2.5 2.5h-21c-1.375 0-2.5-1.125-2.5-2.5v-17c0-1.375 1.125-2.5 2.5-2.5h21c1.375 0 2.5 1.125 2.5 2.5z"></path>
  </symbol>

  <symbol id="icon-double-arrow" viewBox="0 0 32 32">
    <path d="M16.138 15.561l-7.4-7.38c-0.242-0.242-0.635-0.241-0.877 0.001s-0.241 0.635 0.001 0.877l6.96 6.941-6.96 6.941c-0.242 0.242-0.243 0.634-0.001 0.877 0.121 0.122 0.28 0.182 0.439 0.182s0.317-0.060 0.438-0.181l7.4-7.38c0.117-0.116 0.182-0.274 0.182-0.439s-0.066-0.323-0.182-0.439z"></path>
    <path d="M24.138 15.561l-7.4-7.38c-0.242-0.242-0.635-0.241-0.877 0.001s-0.241 0.635 0.001 0.877l6.96 6.941-6.96 6.941c-0.242 0.242-0.243 0.634-0.001 0.877 0.121 0.122 0.28 0.182 0.439 0.182s0.317-0.060 0.438-0.181l7.401-7.38c0.117-0.116 0.182-0.274 0.182-0.439s-0.066-0.323-0.182-0.439z"></path>
  </symbol>
  </defs>
</svg>
